<svg version="1.0" xmlns="http://www.w3.org/2000/svg" width="1706.667" height="1282.667" viewBox="0 0 1280 962"><path d="M658.5.8c.6.5 13.4 8.5 28.5 17.7s31.1 19.2 35.4 22.3c20.7 14.5 44.7 36.6 60.7 55.8 36.6 43.9 54.3 88.4 62.5 157 2.2 18.3 3 66.6 1.4 88.9-.6 9.9-1.3 18.1-1.4 18.2-.1.1-37.9.7-84.1 1.3-46.2.6-96.4 1.5-111.6 1.8l-27.5.7 167 211.7C881.3 692.7 957 788.4 957.6 789c.8.8 44-54 161.8-205.2L1280 377.6V355h-176.7v-27.8c0-85.7-19.8-155-59.6-208.2-8-10.8-26.7-29.9-37.4-38.3C953.5 39.1 873 13.1 764.5 2.4 745.4.6 656.9-.8 658.5.8zM160.9 377.7L.5 583.5l-.3 11.7-.3 11.8h176.8v27.7c0 85.8 19.8 155.1 59.6 208.3 8 10.8 26.7 29.9 37.4 38.3 52.8 41.6 133.3 67.6 241.8 78.3 19.1 1.8 107.6 3.2 106 1.6-.5-.5-13.4-8.5-28.5-17.7s-31.1-19.2-35.4-22.3c-20.5-14.4-44.9-36.8-60.7-55.8-36.6-43.9-54.3-88.4-62.5-157-2.2-18.3-3-66.6-1.4-88.9.6-9.9 1.3-18.1 1.4-18.2.1-.1 37.9-.7 84.1-1.3 46.2-.6 96.4-1.5 111.6-1.8l27.5-.7-167-211.7C398.7 269.3 323 173.6 322.4 173c-.8-.8-43.9 53.8-161.5 204.7z"/></svg>